<?xml version="1.0" encoding="utf-8"?>
<svg version="1.1" id="Layer_1" xmlns="http://www.w3.org/2000/svg" xmlns:xlink="http://www.w3.org/1999/xlink" x="0px" y="0px"
	 viewBox="0 0 5000 2937.7615" enable-background="new 0 0 5000 2937.7615" xml:space="preserve">
<g>
	<path d="M4448.1641,72.3128C4325.6963,24.6295,4185.7627,0,4065.5459,0c-252.2734,0-483.6992,104.6998-654.8235,321.3412
		C3222.3511,85.2936,2955.7104-14.6312,2654.1255,5.2266c-56.7839,3.743-112.2053,12.1429-165.759,25.0878
		c46.241,11.0492,91.9475,25.0615,135.4475,41.9985c128.1138,49.883,235.2363,122.5425,319.9736,211.9307
		c152.5183,50.2419,271.8796,158.5947,356.2415,323.9531l110.9592,217.4947l110.8735-217.5392
		c125.9875-247.1955,335.3909-385.724,620.562-354.9071c306.3286,33.107,520.9634,203.7538,588.8735,468.183
		c172.8901,673.2064-764.6545,1480.8662-1317.9817,1901.562c-249.5156-200.7532-513.564-423.2585-739.5945-652.1122
		c-59.9692-60.718-117.2549-121.8827-170.8892-183.207c-32.4304-37.0802-63.5359-74.2179-93.0742-111.351
		c-277.6318-349.0142-381.8135-651.2349-318.4985-923.9312c53.3958-229.9732,192.6279-393.8912,398.0491-463.461
		c-53.1785-17.0854-110.3899-29.1069-171.2344-35.6827c-92.3765-9.9826-176.7913-2.1738-253.0063,21.3208
		c-37.7042,40.6576-71.8662,85.757-101.9236,135.2511c-97.7698,160.9939-152.9413,369.1869-135.6453,580.822
		c25.3319,309.9172,193.0709,596.4202,387.3867,840.6965c37.9019,47.647,77.9004,94.9855,119.5908,141.958
		c54.3218,61.2037,111.5474,121.7771,170.896,181.5732c281.6484,283.771,610.9419,550.0273,902.9648,782.8948l76.9622-57.3171
		c531.8145-396.0571,1252.4897-1010.2903,1458.042-1642.9219C5104.4409,741.6913,4916.6421,254.7225,4448.1641,72.3128z"/>
	<path fill="#FF0000" d="M2943.7876,284.2435c-84.7373-89.3882-191.8599-162.0477-319.9736-211.9307
		c-43.5-16.937-89.2065-30.9492-135.4475-41.9985C2404.4231,10.2563,2318.7122,0,2241.1958,0
		c-252.2731,0-483.6991,104.6998-654.8231,321.3412C1398.0012,85.2936,1131.3605-14.6312,829.7755,5.2266
		C542.1033,24.1892,289.1972,162.155,138.7942,409.8169C41.0244,570.8108-14.1471,779.0037,3.1487,990.6389
		c25.332,309.9172,193.071,596.4202,387.3868,840.6965c321.6505,404.3508,792.6667,786.8286,1193.4517,1106.426l76.9623-57.3171
		c263.6515-196.3489,573.7136-446.3259,844.4229-725.5776c-59.3486-59.7961-116.5742-120.3695-170.896-181.5732
		c-246.8599,255.6763-526.3256,483.0498-745.5106,649.6965c-355.7437-286.2217-741.04-616.6565-1003.5578-946.6702
		C307.776,1327.3057,203.5946,1025.085,266.9093,752.3887c72.0926-310.4987,300.6178-500.64,637.3254-500.64
		c258.5137-0.0057,450.7745,119.921,571.4445,356.4479l110.9594,217.4947l110.8734-217.5392
		c85.176-167.1207,208.4897-284.5518,367.5557-333.5863c76.2151-23.4946,160.6299-31.3034,253.0063-21.3208
		c60.8445,6.5758,118.0559,18.5974,171.2344,35.6827c214.554,68.9329,363.2178,220.5932,417.6389,432.5003
		c88.2163,343.4999-112.6819,721.9993-404.1152,1066.2428c53.6343,61.3243,110.9199,122.489,170.8892,183.207
		c200.3606-233.1709,363.5386-481.8079,445.2705-733.3553C3236.0356,877.2849,3168.9136,521.7253,2943.7876,284.2435z"/>
</g>
</svg>
